:SAMPLES-PER-SECOND 30
:FULLY-SPECIFIED
:DEGREES
1257
root  21.8168 37.7133 -12.3311 -158.969 77.5814 -161.325
RightUpLeg  -29.8878 -19.2701 15.517
RightLeg  28.7826 -7.85293 -4.88734
RightFoot  -6.23655 0.402136 -9.90565
RightToes  0.00048216 0.542163 -0.142577
Spine  10.9144 -5.09322 8.43564
Spine1  2.29907 -6.99293 11.5746
HEad  16.2852 -7.8191 1.83591
LeftShoulder1  5.2094 -8.35966 -37.7433
LeftArm  -20.0156 27.9442 -36.952
LeftForeArm  32.1905 -20.8055 -2.95019
LeftHand  -0.25398 0.0180481 5.50724
RightShoulder  1.55948 1.76762 23.3615
RightArm  -23.4727 -33.8076 39.6887
RightForeArm  8.26987 15.6208 3.64398
RightHand  -0.995517 2.70745 -14.4757
LeftUpLeg  12.4719 16.6276 3.80788
LeftLeg  35.5975 3.56671 3.09298
LeftFoot  4.81526 0.362901 -2.74834
LeftToes  1.06245e-005 4.65856e-005 -8.18504e-006
1258
root  23.0969 37.688 -12.6615 -154.904 77.674 -157.39
RightUpLeg  -28.8505 -19.1031 15.5
RightLeg  31.1112 -7.73741 -5.26465
RightFoot  -8.70248 0.144819 -8.83208
RightToes  0.00048216 0.542163 -0.142577
Spine  10.4909 -5.30794 10.5054
Spine1  2.45655 -6.88753 11.5775
HEad  17.1416 -8.78205 1.59277
LeftShoulder1  5.36307 -8.50275 -38.4693
LeftArm  -18.2824 27.6674 -38.3222
LeftForeArm  33.7908 -21.9596 -3.06389
LeftHand  -0.25398 0.0180481 5.50724
RightShoulder  1.51406 1.56801 23.6413
RightArm  -23.2405 -32.9791 40.8385
RightForeArm  7.40758 16.6098 3.84614
RightHand  -1.02624 2.74563 -14.844
LeftUpLeg  6.17331 17.0273 4.8369
LeftLeg  45.8642 2.92246 3.57363
LeftFoot  15.882 0.396262 -2.00115
LeftToes  1.06245e-005 4.65856e-005 -8.18504e-006
1259
root  24.3624 37.7331 -12.9609 -152.568 78.1386 -154.655
RightUpLeg  -26.6956 -18.7845 14.8341
RightLeg  32.6125 -7.46509 -5.38017
RightFoot  -11.0056 -0.0507787 -8.06296
RightToes  0.00048216 0.542163 -0.142577
Spine  10.4279 -5.29115 11.8945
Spine1  2.75767 -6.54106 11.292
HEad  17.5222 -9.91536 1.72279
LeftShoulder1  5.52702 -8.70226 -39.0561
LeftArm  -16.6752 26.9938 -38.8479
LeftForeArm  35.474 -23.6221 -3.2297
LeftHand  -0.25398 0.0180481 5.50724
RightShoulder  1.59808 1.77927 24.057
RightArm  -22.3858 -31.9379 41.6471
RightForeArm  6.95986 17.2445 4.01539
RightHand  -1.07262 2.85467 -15.3012
LeftUpLeg  0.234087 16.8959 5.39335
LeftLeg  55.0586 1.34839 2.56169
LeftFoot  20.1173 0.362129 -1.73068
LeftToes  1.06245e-005 4.65856e-005 -8.18504e-006
1260
root  25.7063 37.9348 -13.2618 -153.151 79.2769 -154.65
RightUpLeg  -23.3403 -18.2964 13.1083
RightLeg  32.7063 -6.93503 -5.04078
RightFoot  -12.7687 -0.175897 -7.19644
RightToes  0.00048216 0.542163 -0.142577
Spine  10.2585 -5.0708 12.1203
Spine1  3.13032 -6.11667 10.6912
HEad  17.989 -10.9602 2.11153
LeftShoulder1  5.69906 -8.92095 -39.6173
LeftArm  -15.9077 26.3197 -38.5359
LeftForeArm  36.8507 -25.6029 -3.54808
LeftHand  -0.25398 0.0180481 5.50724
RightShoulder  1.79487 2.29715 24.7871
RightArm  -20.7955 -30.4937 41.8263
RightForeArm  7.37899 17.619 4.13262
RightHand  -1.14039 3.11045 -15.7771
LeftUpLeg  -5.32846 16.6654 5.08243
LeftLeg  62.3863 0.881598 2.51481
LeftFoot  17.625 -0.124018 0.0930114
LeftToes  1.06245e-005 4.65856e-005 -8.18504e-006
1261
root  27.0699 38.1792 -13.5682 -154.169 80.7391 -155.264
RightUpLeg  -19.8734 -17.8618 11.1564
RightLeg  32.1491 -6.24673 -4.48028
RightFoot  -14.0102 -0.237021 -6.10052
RightToes  0.00048216 0.542163 -0.142577
Spine  9.80605 -4.75022 12.1279
Spine1  3.40921 -5.62426 9.84051
HEad  18.7009 -11.9535 2.48319
LeftShoulder1  5.82011 -9.0844 -39.9658
LeftArm  -15.9514 25.7168 -37.9277
LeftForeArm  37.2614 -27.1866 -3.86388
LeftHand  -0.25398 0.0180481 5.50724
RightShoulder  2.0074 2.79937 25.7411
RightArm  -18.6962 -28.8023 41.4427
RightForeArm  7.41942 18.0924 4.26928
RightHand  -1.20719 3.3644 -16.2156
LeftUpLeg  -10.8275 16.2635 4.56632
LeftLeg  66.9467 1.67745 5.05933
LeftFoot  12.7355 -0.620654 2.5419
LeftToes  1.06245e-005 4.65856e-005 -8.18504e-006
1262
root  28.4107 38.3839 -13.8878 -153.656 82.3682 -154.397
RightUpLeg  -16.5054 -17.4822 9.34749
RightLeg  31.4547 -5.4164 -3.82868
RightFoot  -15.1741 -0.275693 -5.16893
RightToes  0.00048216 0.542163 -0.142577
Spine  9.4479 -4.3546 12.3637
Spine1  3.41822 -5.03025 9.00525
HEad  19.4211 -12.9028 2.58398
LeftShoulder1  5.88971 -9.21235 -40.0446
LeftArm  -16.5229 25.1946 -37.4219
LeftForeArm  36.9255 -28.1586 -4.09117
LeftHand  -0.25398 0.0180481 5.50724
RightShoulder  2.19578 3.21735 26.5993
RightArm  -16.532 -27.1054 40.797
RightForeArm  6.31794 18.8194 4.43115
RightHand  -1.26724 3.56024 -16.6439
LeftUpLeg  -15.8738 15.5555 4.38247
LeftLeg  68.1757 2.49598 7.60123
LeftFoot  8.82961 -0.878087 4.6242
LeftToes  1.06245e-005 4.65856e-005 -8.18504e-006
1263
root  29.7473 38.5859 -14.2141 -153.081 84.3107 -153.244
RightUpLeg  -12.6137 -16.9549 7.24454
RightLeg  30.1555 -4.27998 -2.94589
RightFoot  -16.3537 -0.300307 -4.33843
RightToes  0.00048216 0.542163 -0.142577
Spine  9.49949 -3.8932 12.2481
Spine1  3.22902 -4.43028 8.34805
HEad  20.0406 -13.6257 2.39181
LeftShoulder1  5.97983 -9.39048 -40.1019
LeftArm  -17.2269 24.7989 -36.7997
LeftForeArm  36.4735 -28.8913 -4.27558
LeftHand  -0.25398 0.0180481 5.50724
RightShoulder  2.36313 3.61886 27.1282
RightArm  -14.7717 -25.3652 40.2054
RightForeArm  4.8798 19.6252 4.55235
RightHand  -1.35981 3.88968 -17.2174
LeftUpLeg  -19.7612 14.5651 4.43555
LeftLeg  66.1253 2.85214 7.76107
LeftFoot  5.33305 -0.868243 5.67619
LeftToes  1.06245e-005 4.65856e-005 -8.18504e-006
1264
root  31.0687 38.7851 -14.5341 -144.486 86.5295 -144.036
RightUpLeg  -8.5063 -16.0984 4.97054
RightLeg  28.2491 -2.90831 -1.94705
RightFoot  -17.2032 -0.289239 -3.37195
RightToes  0.00048216 0.542163 -0.142577
Spine  9.76093 -3.40448 11.8375
Spine1  3.06662 -3.85782 7.65472
HEad  20.6558 -13.9758 2.11055
LeftShoulder1  6.11536 -9.63034 -40.279
LeftArm  -17.8627 24.5554 -35.7487
LeftForeArm  36.1559 -29.6533 -4.46215
LeftHand  -0.25398 0.0180481 5.50724
RightShoulder  2.50587 3.98795 27.4097
RightArm  -13.506 -23.3622 39.7885
RightForeArm  3.80621 20.247 4.62479
RightHand  -1.51409 4.47618 -18.0223
LeftUpLeg  -22.4324 13.6581 4.76659
LeftLeg  61.0106 3.05303 6.53885
LeftFoot  1.51601 -0.566906 4.90096
LeftToes  1.06245e-005 4.65856e-005 -8.18504e-006
1265
root  32.3527 38.9225 -14.8673 -142.919 89.2258 -142.192
RightUpLeg  -5.09065 -14.7325 3.14252
RightLeg  26.4783 -1.76379 -1.14546
RightFoot  -17.6932 -0.275815 -2.80777
RightToes  0.00048216 0.542163 -0.142577
Spine  9.9742 -2.89877 11.9139
Spine1  2.92235 -3.21104 6.66861
HEad  21.1996 -13.9597 1.9684
LeftShoulder1  6.23765 -9.85542 -40.4049
LeftArm  -18.5827 24.5133 -34.3824
LeftForeArm  35.9276 -30.4943 -4.6651
LeftHand  -0.25398 0.0180481 5.50724
RightShoulder  2.64119 4.32596 27.7039
RightArm  -12.3158 -21.0109 39.3867
RightForeArm  2.71812 20.6212 4.69898
RightHand  -1.69037 5.12307 -18.8751
LeftUpLeg  -24.035 13.4155 5.65169
LeftLeg  52.6543 3.38038 5.20619
LeftFoot  -0.411425 -0.246904 2.64912
LeftToes  1.06245e-005 4.65856e-005 -8.18504e-006
1266
root  33.6104 38.987 -15.2342 -30.1428 86.9154 -29.3857
RightUpLeg  -2.26512 -12.5926 1.66057
RightLeg  24.9296 -1.05171 -0.51118
RightFoot  -18.278 -0.295845 -2.83867
RightToes  0.00048216 0.542163 -0.142577
Spine  10.2946 -2.41795 12.3823
Spine1  2.77807 -2.52613 5.52199
HEad  21.3747 -13.605 2.05345
LeftShoulder1  6.31725 -10.0234 -40.4142
LeftArm  -19.3966 24.6653 -32.9079
LeftForeArm  35.7384 -31.5136 -4.91145
LeftHand  -0.25398 0.0180481 5.50724
RightShoulder  2.81337 4.73467 28.1339
RightArm  -10.9089 -18.3505 38.7738
RightForeArm  1.53958 20.865 4.78165
RightHand  -1.79495 5.47081 -19.3918
LeftUpLeg  -24.2313 13.8769 6.90301
LeftLeg  41.181 3.30622 3.50096
LeftFoot  0.836711 0.0325043 -0.293608
LeftToes  1.06245e-005 4.65856e-005 -8.18504e-006
1267
root  34.8693 38.9978 -15.6263 -5.86597 83.9351 -4.97929
RightUpLeg  0.604244 -10.1914 -0.0606478
RightLeg  23.2297 0.104176 0.175515
RightFoot  -19.1892 -0.286034 -2.29296
RightToes  0.00048216 0.542163 -0.142577
Spine  10.8367 -2.04561 12.4164
Spine1  2.98523 -2.00421 4.56341
HEad  21.0884 -12.9469 2.31423
LeftShoulder1  6.40036 -10.1711 -40.5128
LeftArm  -19.9134 24.7895 -31.3306
LeftForeArm  35.5226 -32.6273 -5.18693
LeftHand  -0.25398 0.0180481 5.50724
RightShoulder  3.02337 5.2452 28.5564
RightArm  -9.59102 -15.4354 38.0071
RightForeArm  0.979539 21.0571 4.8262
RightHand  -1.78482 5.40134 -19.4014
LeftUpLeg  -22.9568 14.4858 7.99844
LeftLeg  28.0425 2.07895 1.60623
LeftFoot  2.77914 0.430334 -3.63549
LeftToes  1.06245e-005 4.65856e-005 -8.18504e-006
1268
root  36.1621 38.957 -16.044 -0.800659 80.8272 0.28772
RightUpLeg  3.25413 -8.16132 -2.16594
RightLeg  21.8444 1.88247 0.8059
RightFoot  -20.0337 -0.193212 -0.754784
RightToes  0.00048216 0.542163 -0.142577
Spine  11.2419 -1.78537 11.8972
Spine1  3.77092 -1.68849 3.84647
HEad  20.7137 -12.1714 2.66032
LeftShoulder1  6.50477 -10.3319 -40.7124
LeftArm  -19.868 24.6407 -29.7866
LeftForeArm  35.2486 -33.3733 -5.38245
LeftHand  -0.25398 0.0180481 5.50724
RightShoulder  3.20343 5.71869 28.7424
RightArm  -8.72988 -12.5439 37.4107
RightForeArm  0.955236 21.246 4.83193
RightHand  -1.7492 5.24597 -19.293
LeftUpLeg  -20.9708 14.151 8.93513
LeftLeg  15.7414 1.1375 0.347479
LeftFoot  3.04685 0.755305 -6.14247
LeftToes  1.06245e-005 4.65856e-005 -8.18504e-006
1269
root  37.5194 38.8461 -16.5198 2.14807 77.878 3.27596
RightUpLeg  4.99887 -6.14375 -4.33602
RightLeg  21.6834 2.90186 1.03605
RightFoot  -20.6595 -0.109663 0.384224
RightToes  0.00048216 0.542163 -0.142577
Spine  11.3593 -1.62278 11.3259
Spine1  4.65975 -1.46849 3.20685
HEad  20.6498 -11.5853 3.04814
LeftShoulder1  6.58058 -10.4765 -40.7664
LeftArm  -19.46 24.1947 -28.5925
LeftForeArm  35.0226 -33.4501 -5.41408
LeftHand  -0.25398 0.0180481 5.50724
RightShoulder  3.29786 6.01697 28.6438
RightArm  -8.17132 -10.2476 37.1112
RightForeArm  0.374366 21.7123 4.86049
RightHand  -1.79905 5.39147 -19.5656
LeftUpLeg  -19.2189 11.0513 10.3288
LeftLeg  7.22458 3.32593 -0.717428
LeftFoot  2.87073 0.843205 -6.90062
LeftToes  1.06245e-005 4.65856e-005 -8.18504e-006
